<?xml version="1.0" encoding="UTF-8" standalone="no"?>
<!DOCTYPE svg PUBLIC "-//W3C//DTD SVG 1.1//EN"
 "http://www.w3.org/Graphics/SVG/1.1/DTD/svg11.dtd">
<!-- Generated by graphviz version 12.2.1 (20241206.2353)
 -->
<!-- Pages: 1 -->
<svg width="917pt" height="257pt"
 viewBox="0.00 0.00 917.00 256.62" xmlns="http://www.w3.org/2000/svg" xmlns:xlink="http://www.w3.org/1999/xlink">
<g id="graph0" class="graph" transform="scale(1 1) rotate(0) translate(4 252.62)">
<polygon fill="#ffffff" stroke="none" points="-4,4 -4,-252.62 913,-252.62 913,4 -4,4"/>
<!-- J1_Main -->
<g id="node1" class="node">
<title>J1_Main</title>
<polygon fill="#ffffff" stroke="black" points="171.75,-213.88 0,-213.88 0,-23.88 171.75,-23.88 171.75,-213.88"/>
<polygon fill="none" stroke="black" points="0,-190.12 0,-213.88 171.75,-213.88 171.75,-190.12 0,-190.12"/>
<text text-anchor="start" x="60" y="-196.57" font-family="arial" font-size="14.00">J1_Main</text>
<polygon fill="none" stroke="black" points="0,-166.38 0,-190.12 84.5,-190.12 84.5,-166.38 0,-166.38"/>
<text text-anchor="start" x="4" y="-172.82" font-family="arial" font-size="14.00">JST B6B&#45;XH</text>
<polygon fill="none" stroke="black" points="84.5,-166.38 84.5,-190.12 133.75,-190.12 133.75,-166.38 84.5,-166.38"/>
<text text-anchor="start" x="88.5" y="-172.82" font-family="arial" font-size="14.00">female</text>
<polygon fill="none" stroke="black" points="133.75,-166.38 133.75,-190.12 171.75,-190.12 171.75,-166.38 133.75,-166.38"/>
<text text-anchor="start" x="137.75" y="-172.82" font-family="arial" font-size="14.00">6&#45;pin</text>
<polygon fill="none" stroke="black" points="0,-142.62 0,-166.38 97.5,-166.38 97.5,-142.62 0,-142.62"/>
<text text-anchor="start" x="33.38" y="-149.07" font-family="arial" font-size="14.00">GND</text>
<polygon fill="none" stroke="black" points="97.5,-142.62 97.5,-166.38 171.75,-166.38 171.75,-142.62 97.5,-142.62"/>
<text text-anchor="start" x="130.88" y="-149.07" font-family="arial" font-size="14.00">1</text>
<polygon fill="none" stroke="black" points="0,-118.88 0,-142.62 97.5,-142.62 97.5,-118.88 0,-118.88"/>
<text text-anchor="start" x="38.25" y="-125.33" font-family="arial" font-size="14.00">IN4</text>
<polygon fill="none" stroke="black" points="97.5,-118.88 97.5,-142.62 171.75,-142.62 171.75,-118.88 97.5,-118.88"/>
<text text-anchor="start" x="130.88" y="-125.33" font-family="arial" font-size="14.00">2</text>
<polygon fill="none" stroke="black" points="0,-95.12 0,-118.88 97.5,-118.88 97.5,-95.12 0,-95.12"/>
<text text-anchor="start" x="38.25" y="-101.58" font-family="arial" font-size="14.00">IN3</text>
<polygon fill="none" stroke="black" points="97.5,-95.12 97.5,-118.88 171.75,-118.88 171.75,-95.12 97.5,-95.12"/>
<text text-anchor="start" x="130.88" y="-101.58" font-family="arial" font-size="14.00">3</text>
<polygon fill="none" stroke="black" points="0,-71.38 0,-95.12 97.5,-95.12 97.5,-71.38 0,-71.38"/>
<text text-anchor="start" x="38.25" y="-77.83" font-family="arial" font-size="14.00">IN2</text>
<polygon fill="none" stroke="black" points="97.5,-71.38 97.5,-95.12 171.75,-95.12 171.75,-71.38 97.5,-71.38"/>
<text text-anchor="start" x="130.88" y="-77.83" font-family="arial" font-size="14.00">4</text>
<polygon fill="none" stroke="black" points="0,-47.62 0,-71.38 97.5,-71.38 97.5,-47.62 0,-47.62"/>
<text text-anchor="start" x="38.25" y="-54.08" font-family="arial" font-size="14.00">IN1</text>
<polygon fill="none" stroke="black" points="97.5,-47.62 97.5,-71.38 171.75,-71.38 171.75,-47.62 97.5,-47.62"/>
<text text-anchor="start" x="130.88" y="-54.08" font-family="arial" font-size="14.00">5</text>
<polygon fill="none" stroke="black" points="0,-23.88 0,-47.62 97.5,-47.62 97.5,-23.88 0,-23.88"/>
<text text-anchor="start" x="38.25" y="-30.32" font-family="arial" font-size="14.00">IN0</text>
<polygon fill="none" stroke="black" points="97.5,-23.88 97.5,-47.62 171.75,-47.62 171.75,-23.88 97.5,-23.88"/>
<text text-anchor="start" x="130.88" y="-30.32" font-family="arial" font-size="14.00">6</text>
</g>
<!-- Cable_1 -->
<g id="node3" class="node">
<title>Cable_1</title>
<polygon fill="#ffffff" stroke="black" points="593.25,-248.62 315.75,-248.62 315.75,-7.12 593.25,-7.12 593.25,-248.62"/>
<polygon fill="none" stroke="black" points="315.75,-224.88 315.75,-248.62 593.25,-248.62 593.25,-224.88 315.75,-224.88"/>
<text text-anchor="start" x="429.38" y="-231.32" font-family="arial" font-size="14.00">Cable_1</text>
<polygon fill="none" stroke="black" points="315.75,-201.12 315.75,-224.88 392.75,-224.88 392.75,-201.12 315.75,-201.12"/>
<text text-anchor="start" x="347.12" y="-207.57" font-family="arial" font-size="14.00">6x</text>
<polygon fill="none" stroke="black" points="392.75,-201.12 392.75,-224.88 507.25,-224.88 507.25,-201.12 392.75,-201.12"/>
<text text-anchor="start" x="424.12" y="-207.57" font-family="arial" font-size="14.00">22 AWG</text>
<polygon fill="none" stroke="black" points="507.25,-201.12 507.25,-224.88 593.25,-224.88 593.25,-201.12 507.25,-201.12"/>
<text text-anchor="start" x="538.62" y="-207.57" font-family="arial" font-size="14.00">1 m</text>
<text text-anchor="start" x="364.62" y="-185.82" font-family="arial" font-size="14.00"> </text>
<text text-anchor="start" x="317.75" y="-166.07" font-family="arial" font-size="14.00">J1_Main:1:GND</text>
<text text-anchor="start" x="420.75" y="-166.07" font-family="arial" font-size="14.00"> &#160;&#160;&#160;&#160;1:BK &#160;&#160;&#160;</text>
<text text-anchor="start" x="489.25" y="-166.07" font-family="arial" font-size="14.00">J1_Relay:1:GND</text>
<polygon fill="#000000" stroke="none" points="315.75,-159.62 315.75,-161.62 593.25,-161.62 593.25,-159.62 315.75,-159.62"/>
<polygon fill="#000000" stroke="none" points="315.75,-157.62 315.75,-159.62 593.25,-159.62 593.25,-157.62 315.75,-157.62"/>
<polygon fill="#000000" stroke="none" points="315.75,-155.62 315.75,-157.62 593.25,-157.62 593.25,-155.62 315.75,-155.62"/>
<text text-anchor="start" x="322.62" y="-140.32" font-family="arial" font-size="14.00">J1_Main:2:IN4</text>
<text text-anchor="start" x="419.25" y="-140.32" font-family="arial" font-size="14.00"> &#160;&#160;&#160;&#160;2:GN &#160;&#160;&#160;</text>
<text text-anchor="start" x="494.12" y="-140.32" font-family="arial" font-size="14.00">J1_Relay:2:IN4</text>
<polygon fill="#000000" stroke="none" points="315.75,-133.88 315.75,-135.88 593.25,-135.88 593.25,-133.88 315.75,-133.88"/>
<polygon fill="#00ff00" stroke="none" points="315.75,-131.88 315.75,-133.88 593.25,-133.88 593.25,-131.88 315.75,-131.88"/>
<polygon fill="#000000" stroke="none" points="315.75,-129.88 315.75,-131.88 593.25,-131.88 593.25,-129.88 315.75,-129.88"/>
<text text-anchor="start" x="322.62" y="-114.58" font-family="arial" font-size="14.00">J1_Main:3:IN3</text>
<text text-anchor="start" x="419.25" y="-114.58" font-family="arial" font-size="14.00"> &#160;&#160;&#160;&#160;3:GN &#160;&#160;&#160;</text>
<text text-anchor="start" x="494.12" y="-114.58" font-family="arial" font-size="14.00">J1_Relay:3:IN3</text>
<polygon fill="#000000" stroke="none" points="315.75,-108.12 315.75,-110.12 593.25,-110.12 593.25,-108.12 315.75,-108.12"/>
<polygon fill="#00ff00" stroke="none" points="315.75,-106.12 315.75,-108.12 593.25,-108.12 593.25,-106.12 315.75,-106.12"/>
<polygon fill="#000000" stroke="none" points="315.75,-104.12 315.75,-106.12 593.25,-106.12 593.25,-104.12 315.75,-104.12"/>
<text text-anchor="start" x="322.62" y="-88.83" font-family="arial" font-size="14.00">J1_Main:4:IN2</text>
<text text-anchor="start" x="419.25" y="-88.83" font-family="arial" font-size="14.00"> &#160;&#160;&#160;&#160;4:GN &#160;&#160;&#160;</text>
<text text-anchor="start" x="494.12" y="-88.83" font-family="arial" font-size="14.00">J1_Relay:4:IN2</text>
<polygon fill="#000000" stroke="none" points="315.75,-82.38 315.75,-84.38 593.25,-84.38 593.25,-82.38 315.75,-82.38"/>
<polygon fill="#00ff00" stroke="none" points="315.75,-80.38 315.75,-82.38 593.25,-82.38 593.25,-80.38 315.75,-80.38"/>
<polygon fill="#000000" stroke="none" points="315.75,-78.38 315.75,-80.38 593.25,-80.38 593.25,-78.38 315.75,-78.38"/>
<text text-anchor="start" x="322.62" y="-63.08" font-family="arial" font-size="14.00">J1_Main:5:IN1</text>
<text text-anchor="start" x="419.25" y="-63.08" font-family="arial" font-size="14.00"> &#160;&#160;&#160;&#160;5:GN &#160;&#160;&#160;</text>
<text text-anchor="start" x="494.12" y="-63.08" font-family="arial" font-size="14.00">J1_Relay:5:IN1</text>
<polygon fill="#000000" stroke="none" points="315.75,-56.62 315.75,-58.62 593.25,-58.62 593.25,-56.62 315.75,-56.62"/>
<polygon fill="#00ff00" stroke="none" points="315.75,-54.62 315.75,-56.62 593.25,-56.62 593.25,-54.62 315.75,-54.62"/>
<polygon fill="#000000" stroke="none" points="315.75,-52.62 315.75,-54.62 593.25,-54.62 593.25,-52.62 315.75,-52.62"/>
<text text-anchor="start" x="322.62" y="-37.33" font-family="arial" font-size="14.00">J1_Main:6:IN0</text>
<text text-anchor="start" x="419.25" y="-37.33" font-family="arial" font-size="14.00"> &#160;&#160;&#160;&#160;6:GN &#160;&#160;&#160;</text>
<text text-anchor="start" x="494.12" y="-37.33" font-family="arial" font-size="14.00">J1_Relay:6:IN0</text>
<polygon fill="#000000" stroke="none" points="315.75,-30.88 315.75,-32.88 593.25,-32.88 593.25,-30.88 315.75,-30.88"/>
<polygon fill="#00ff00" stroke="none" points="315.75,-28.88 315.75,-30.88 593.25,-30.88 593.25,-28.88 315.75,-28.88"/>
<polygon fill="#000000" stroke="none" points="315.75,-26.88 315.75,-28.88 593.25,-28.88 593.25,-26.88 315.75,-26.88"/>
<text text-anchor="start" x="364.62" y="-11.57" font-family="arial" font-size="14.00"> </text>
</g>
<!-- J1_Main&#45;&#45;Cable_1 -->
<g id="edge1" class="edge">
<title>J1_Main:e&#45;&#45;Cable_1:w</title>
<path fill="none" stroke="#000000" stroke-width="2" d="M171.75,-152.5C236.28,-152.56 252.22,-156.69 315.75,-156.63"/>
<path fill="none" stroke="#000000" stroke-width="2" d="M171.75,-154.5C235.78,-154.5 251.72,-158.62 315.75,-158.62"/>
<path fill="none" stroke="#000000" stroke-width="2" d="M171.75,-156.5C235.28,-156.44 251.22,-160.56 315.75,-160.62"/>
</g>
<!-- J1_Main&#45;&#45;Cable_1 -->
<g id="edge3" class="edge">
<title>J1_Main:e&#45;&#45;Cable_1:w</title>
<path fill="none" stroke="#000000" stroke-width="2" d="M171.75,-128.75C236.02,-128.77 252.01,-130.89 315.75,-130.88"/>
<path fill="none" stroke="#00ff00" stroke-width="2" d="M171.75,-130.75C235.76,-130.75 251.74,-132.88 315.75,-132.88"/>
<path fill="none" stroke="#000000" stroke-width="2" d="M171.75,-132.75C235.49,-132.73 251.48,-134.86 315.75,-134.87"/>
</g>
<!-- J1_Main&#45;&#45;Cable_1 -->
<g id="edge5" class="edge">
<title>J1_Main:e&#45;&#45;Cable_1:w</title>
<path fill="none" stroke="#000000" stroke-width="2" d="M171.75,-105C235.77,-105 251.77,-105.13 315.75,-105.13"/>
<path fill="none" stroke="#00ff00" stroke-width="2" d="M171.75,-107C235.75,-107 251.75,-107.12 315.75,-107.12"/>
<path fill="none" stroke="#000000" stroke-width="2" d="M171.75,-109C235.73,-109 251.73,-109.12 315.75,-109.12"/>
</g>
<!-- J1_Main&#45;&#45;Cable_1 -->
<g id="edge7" class="edge">
<title>J1_Main:e&#45;&#45;Cable_1:w</title>
<path fill="none" stroke="#000000" stroke-width="2" d="M171.75,-81.25C235.52,-81.26 251.51,-79.39 315.75,-79.38"/>
<path fill="none" stroke="#00ff00" stroke-width="2" d="M171.75,-83.25C235.76,-83.25 251.74,-81.38 315.75,-81.37"/>
<path fill="none" stroke="#000000" stroke-width="2" d="M171.75,-85.25C235.99,-85.24 251.98,-83.36 315.75,-83.37"/>
</g>
<!-- J1_Main&#45;&#45;Cable_1 -->
<g id="edge9" class="edge">
<title>J1_Main:e&#45;&#45;Cable_1:w</title>
<path fill="none" stroke="#000000" stroke-width="2" d="M171.75,-57.5C235.3,-57.56 251.25,-53.68 315.75,-53.63"/>
<path fill="none" stroke="#00ff00" stroke-width="2" d="M171.75,-59.5C235.77,-59.5 251.73,-55.62 315.75,-55.63"/>
<path fill="none" stroke="#000000" stroke-width="2" d="M171.75,-61.5C236.25,-61.44 252.2,-57.57 315.75,-57.62"/>
</g>
<!-- J1_Main&#45;&#45;Cable_1 -->
<g id="edge11" class="edge">
<title>J1_Main:e&#45;&#45;Cable_1:w</title>
<path fill="none" stroke="#000000" stroke-width="2" d="M171.75,-33.75C235.11,-33.87 251,-28 315.75,-27.88"/>
<path fill="none" stroke="#00ff00" stroke-width="2" d="M171.75,-35.75C235.8,-35.75 251.7,-29.87 315.75,-29.88"/>
<path fill="none" stroke="#000000" stroke-width="2" d="M171.75,-37.75C236.5,-37.63 252.39,-31.75 315.75,-31.87"/>
</g>
<!-- J1_Relay -->
<g id="node2" class="node">
<title>J1_Relay</title>
<polygon fill="#ffffff" stroke="black" points="909,-213.75 737.25,-213.75 737.25,0 909,0 909,-213.75"/>
<polygon fill="none" stroke="black" points="737.25,-190 737.25,-213.75 909,-213.75 909,-190 737.25,-190"/>
<text text-anchor="start" x="795" y="-196.45" font-family="arial" font-size="14.00">J1_Relay</text>
<polygon fill="none" stroke="black" points="737.25,-166.25 737.25,-190 821.75,-190 821.75,-166.25 737.25,-166.25"/>
<text text-anchor="start" x="741.25" y="-172.7" font-family="arial" font-size="14.00">JST B7B&#45;XH</text>
<polygon fill="none" stroke="black" points="821.75,-166.25 821.75,-190 871,-190 871,-166.25 821.75,-166.25"/>
<text text-anchor="start" x="825.75" y="-172.7" font-family="arial" font-size="14.00">female</text>
<polygon fill="none" stroke="black" points="871,-166.25 871,-190 909,-190 909,-166.25 871,-166.25"/>
<text text-anchor="start" x="875" y="-172.7" font-family="arial" font-size="14.00">7&#45;pin</text>
<polygon fill="none" stroke="black" points="737.25,-142.5 737.25,-166.25 811.5,-166.25 811.5,-142.5 737.25,-142.5"/>
<text text-anchor="start" x="770.62" y="-148.95" font-family="arial" font-size="14.00">1</text>
<polygon fill="none" stroke="black" points="811.5,-142.5 811.5,-166.25 909,-166.25 909,-142.5 811.5,-142.5"/>
<text text-anchor="start" x="844.88" y="-148.95" font-family="arial" font-size="14.00">GND</text>
<polygon fill="none" stroke="black" points="737.25,-118.75 737.25,-142.5 811.5,-142.5 811.5,-118.75 737.25,-118.75"/>
<text text-anchor="start" x="770.62" y="-125.2" font-family="arial" font-size="14.00">2</text>
<polygon fill="none" stroke="black" points="811.5,-118.75 811.5,-142.5 909,-142.5 909,-118.75 811.5,-118.75"/>
<text text-anchor="start" x="849.75" y="-125.2" font-family="arial" font-size="14.00">IN4</text>
<polygon fill="none" stroke="black" points="737.25,-95 737.25,-118.75 811.5,-118.75 811.5,-95 737.25,-95"/>
<text text-anchor="start" x="770.62" y="-101.45" font-family="arial" font-size="14.00">3</text>
<polygon fill="none" stroke="black" points="811.5,-95 811.5,-118.75 909,-118.75 909,-95 811.5,-95"/>
<text text-anchor="start" x="849.75" y="-101.45" font-family="arial" font-size="14.00">IN3</text>
<polygon fill="none" stroke="black" points="737.25,-71.25 737.25,-95 811.5,-95 811.5,-71.25 737.25,-71.25"/>
<text text-anchor="start" x="770.62" y="-77.7" font-family="arial" font-size="14.00">4</text>
<polygon fill="none" stroke="black" points="811.5,-71.25 811.5,-95 909,-95 909,-71.25 811.5,-71.25"/>
<text text-anchor="start" x="849.75" y="-77.7" font-family="arial" font-size="14.00">IN2</text>
<polygon fill="none" stroke="black" points="737.25,-47.5 737.25,-71.25 811.5,-71.25 811.5,-47.5 737.25,-47.5"/>
<text text-anchor="start" x="770.62" y="-53.95" font-family="arial" font-size="14.00">5</text>
<polygon fill="none" stroke="black" points="811.5,-47.5 811.5,-71.25 909,-71.25 909,-47.5 811.5,-47.5"/>
<text text-anchor="start" x="849.75" y="-53.95" font-family="arial" font-size="14.00">IN1</text>
<polygon fill="none" stroke="black" points="737.25,-23.75 737.25,-47.5 811.5,-47.5 811.5,-23.75 737.25,-23.75"/>
<text text-anchor="start" x="770.62" y="-30.2" font-family="arial" font-size="14.00">6</text>
<polygon fill="none" stroke="black" points="811.5,-23.75 811.5,-47.5 909,-47.5 909,-23.75 811.5,-23.75"/>
<text text-anchor="start" x="849.75" y="-30.2" font-family="arial" font-size="14.00">IN0</text>
<polygon fill="none" stroke="black" points="737.25,0 737.25,-23.75 811.5,-23.75 811.5,0 737.25,0"/>
<text text-anchor="start" x="770.62" y="-6.45" font-family="arial" font-size="14.00">7</text>
<polygon fill="none" stroke="black" points="811.5,0 811.5,-23.75 909,-23.75 909,0 811.5,0"/>
<text text-anchor="start" x="852" y="-6.45" font-family="arial" font-size="14.00">5V</text>
</g>
<!-- Cable_1&#45;&#45;J1_Relay -->
<g id="edge2" class="edge">
<title>Cable_1:e&#45;&#45;J1_Relay:w</title>
<path fill="none" stroke="#000000" stroke-width="2" d="M593.25,-156.63C656.76,-156.69 672.71,-152.44 737.25,-152.38"/>
<path fill="none" stroke="#000000" stroke-width="2" d="M593.25,-158.62C657.28,-158.62 673.22,-154.37 737.25,-154.38"/>
<path fill="none" stroke="#000000" stroke-width="2" d="M593.25,-160.62C657.79,-160.56 673.74,-156.31 737.25,-156.37"/>
</g>
<!-- Cable_1&#45;&#45;J1_Relay -->
<g id="edge4" class="edge">
<title>Cable_1:e&#45;&#45;J1_Relay:w</title>
<path fill="none" stroke="#000000" stroke-width="2" d="M593.25,-130.88C656.98,-130.89 672.96,-128.64 737.25,-128.63"/>
<path fill="none" stroke="#00ff00" stroke-width="2" d="M593.25,-132.88C657.26,-132.88 673.24,-130.62 737.25,-130.62"/>
<path fill="none" stroke="#000000" stroke-width="2" d="M593.25,-134.87C657.54,-134.86 673.52,-132.61 737.25,-132.62"/>
</g>
<!-- Cable_1&#45;&#45;J1_Relay -->
<g id="edge6" class="edge">
<title>Cable_1:e&#45;&#45;J1_Relay:w</title>
<path fill="none" stroke="#000000" stroke-width="2" d="M593.25,-105.13C657.22,-105.13 673.22,-104.88 737.25,-104.88"/>
<path fill="none" stroke="#00ff00" stroke-width="2" d="M593.25,-107.12C657.25,-107.12 673.25,-106.87 737.25,-106.87"/>
<path fill="none" stroke="#000000" stroke-width="2" d="M593.25,-109.12C657.28,-109.12 673.28,-108.87 737.25,-108.87"/>
</g>
<!-- Cable_1&#45;&#45;J1_Relay -->
<g id="edge8" class="edge">
<title>Cable_1:e&#45;&#45;J1_Relay:w</title>
<path fill="none" stroke="#000000" stroke-width="2" d="M593.25,-79.38C657.47,-79.39 673.46,-81.14 737.25,-81.13"/>
<path fill="none" stroke="#00ff00" stroke-width="2" d="M593.25,-81.38C657.25,-81.38 673.25,-83.12 737.25,-83.12"/>
<path fill="none" stroke="#000000" stroke-width="2" d="M593.25,-83.37C657.04,-83.36 673.03,-85.11 737.25,-85.12"/>
</g>
<!-- Cable_1&#45;&#45;J1_Relay -->
<g id="edge10" class="edge">
<title>Cable_1:e&#45;&#45;J1_Relay:w</title>
<path fill="none" stroke="#000000" stroke-width="2" d="M593.25,-53.63C657.73,-53.68 673.69,-57.43 737.25,-57.38"/>
<path fill="none" stroke="#00ff00" stroke-width="2" d="M593.25,-55.62C657.27,-55.62 673.23,-59.38 737.25,-59.38"/>
<path fill="none" stroke="#000000" stroke-width="2" d="M593.25,-57.62C656.81,-57.57 672.77,-61.32 737.25,-61.37"/>
</g>
<!-- Cable_1&#45;&#45;J1_Relay -->
<g id="edge12" class="edge">
<title>Cable_1:e&#45;&#45;J1_Relay:w</title>
<path fill="none" stroke="#000000" stroke-width="2" d="M593.25,-27.88C657.98,-27.99 673.88,-33.74 737.25,-33.63"/>
<path fill="none" stroke="#00ff00" stroke-width="2" d="M593.25,-29.88C657.3,-29.88 673.2,-35.62 737.25,-35.62"/>
<path fill="none" stroke="#000000" stroke-width="2" d="M593.25,-31.87C656.62,-31.76 672.52,-37.51 737.25,-37.62"/>
</g>
</g>
</svg>
