<?xml version="1.0" encoding="UTF-8" standalone="no"?>
<!DOCTYPE svg PUBLIC "-//W3C//DTD SVG 1.1//EN"
 "http://www.w3.org/Graphics/SVG/1.1/DTD/svg11.dtd">
<!-- Generated by graphviz version 12.2.1 (20241206.2353)
 -->
<!-- Pages: 1 -->
<svg width="959pt" height="250pt"
 viewBox="0.00 0.00 959.00 249.50" xmlns="http://www.w3.org/2000/svg" xmlns:xlink="http://www.w3.org/1999/xlink">
<g id="graph0" class="graph" transform="scale(1 1) rotate(0) translate(4 245.5)">
<polygon fill="#ffffff" stroke="none" points="-4,4 -4,-245.5 955,-245.5 955,4 -4,4"/>
<!-- J1_Main -->
<g id="node1" class="node">
<title>J1_Main</title>
<polygon fill="#ffffff" stroke="black" points="171.75,-206.75 0,-206.75 0,-16.75 171.75,-16.75 171.75,-206.75"/>
<polygon fill="none" stroke="black" points="0,-183 0,-206.75 171.75,-206.75 171.75,-183 0,-183"/>
<text text-anchor="start" x="60" y="-189.45" font-family="arial" font-size="14.00">J1_Main</text>
<polygon fill="none" stroke="black" points="0,-159.25 0,-183 84.5,-183 84.5,-159.25 0,-159.25"/>
<text text-anchor="start" x="4" y="-165.7" font-family="arial" font-size="14.00">JST B6B&#45;XH</text>
<polygon fill="none" stroke="black" points="84.5,-159.25 84.5,-183 133.75,-183 133.75,-159.25 84.5,-159.25"/>
<text text-anchor="start" x="88.5" y="-165.7" font-family="arial" font-size="14.00">female</text>
<polygon fill="none" stroke="black" points="133.75,-159.25 133.75,-183 171.75,-183 171.75,-159.25 133.75,-159.25"/>
<text text-anchor="start" x="137.75" y="-165.7" font-family="arial" font-size="14.00">6&#45;pin</text>
<polygon fill="none" stroke="black" points="0,-135.5 0,-159.25 101.25,-159.25 101.25,-135.5 0,-135.5"/>
<text text-anchor="start" x="35.25" y="-141.95" font-family="arial" font-size="14.00">GND</text>
<polygon fill="none" stroke="black" points="101.25,-135.5 101.25,-159.25 171.75,-159.25 171.75,-135.5 101.25,-135.5"/>
<text text-anchor="start" x="132.75" y="-141.95" font-family="arial" font-size="14.00">1</text>
<polygon fill="none" stroke="black" points="0,-111.75 0,-135.5 101.25,-135.5 101.25,-111.75 0,-111.75"/>
<text text-anchor="start" x="37.5" y="-118.2" font-family="arial" font-size="14.00">SCL</text>
<polygon fill="none" stroke="black" points="101.25,-111.75 101.25,-135.5 171.75,-135.5 171.75,-111.75 101.25,-111.75"/>
<text text-anchor="start" x="132.75" y="-118.2" font-family="arial" font-size="14.00">2</text>
<polygon fill="none" stroke="black" points="0,-88 0,-111.75 101.25,-111.75 101.25,-88 0,-88"/>
<text text-anchor="start" x="36.75" y="-94.45" font-family="arial" font-size="14.00">SDA</text>
<polygon fill="none" stroke="black" points="101.25,-88 101.25,-111.75 171.75,-111.75 171.75,-88 101.25,-88"/>
<text text-anchor="start" x="132.75" y="-94.45" font-family="arial" font-size="14.00">3</text>
<polygon fill="none" stroke="black" points="0,-64.25 0,-88 101.25,-88 101.25,-64.25 0,-64.25"/>
<text text-anchor="start" x="31.5" y="-70.7" font-family="arial" font-size="14.00">INT_A</text>
<polygon fill="none" stroke="black" points="101.25,-64.25 101.25,-88 171.75,-88 171.75,-64.25 101.25,-64.25"/>
<text text-anchor="start" x="132.75" y="-70.7" font-family="arial" font-size="14.00">4</text>
<polygon fill="none" stroke="black" points="0,-40.5 0,-64.25 101.25,-64.25 101.25,-40.5 0,-40.5"/>
<text text-anchor="start" x="31.5" y="-46.95" font-family="arial" font-size="14.00">INT_B</text>
<polygon fill="none" stroke="black" points="101.25,-40.5 101.25,-64.25 171.75,-64.25 171.75,-40.5 101.25,-40.5"/>
<text text-anchor="start" x="132.75" y="-46.95" font-family="arial" font-size="14.00">5</text>
<polygon fill="none" stroke="black" points="0,-16.75 0,-40.5 101.25,-40.5 101.25,-16.75 0,-16.75"/>
<text text-anchor="start" x="36.75" y="-23.2" font-family="arial" font-size="14.00">3.3V</text>
<polygon fill="none" stroke="black" points="101.25,-16.75 101.25,-40.5 171.75,-40.5 171.75,-16.75 101.25,-16.75"/>
<text text-anchor="start" x="132.75" y="-23.2" font-family="arial" font-size="14.00">6</text>
</g>
<!-- Cable_1 -->
<g id="node3" class="node">
<title>Cable_1</title>
<polygon fill="#ffffff" stroke="black" points="635.25,-241.5 315.75,-241.5 315.75,0 635.25,0 635.25,-241.5"/>
<polygon fill="none" stroke="black" points="315.75,-217.75 315.75,-241.5 635.25,-241.5 635.25,-217.75 315.75,-217.75"/>
<text text-anchor="start" x="450.38" y="-224.2" font-family="arial" font-size="14.00">Cable_1</text>
<polygon fill="none" stroke="black" points="315.75,-194 315.75,-217.75 406.75,-217.75 406.75,-194 315.75,-194"/>
<text text-anchor="start" x="354.12" y="-200.45" font-family="arial" font-size="14.00">6x</text>
<polygon fill="none" stroke="black" points="406.75,-194 406.75,-217.75 535.25,-217.75 535.25,-194 406.75,-194"/>
<text text-anchor="start" x="445.12" y="-200.45" font-family="arial" font-size="14.00">22 AWG</text>
<polygon fill="none" stroke="black" points="535.25,-194 535.25,-217.75 635.25,-217.75 635.25,-194 535.25,-194"/>
<text text-anchor="start" x="573.62" y="-200.45" font-family="arial" font-size="14.00">1 m</text>
<text text-anchor="start" x="368.38" y="-178.7" font-family="arial" font-size="14.00"> </text>
<text text-anchor="start" x="321.5" y="-158.95" font-family="arial" font-size="14.00">J1_Main:1:GND</text>
<text text-anchor="start" x="428.25" y="-158.95" font-family="arial" font-size="14.00"> &#160;&#160;&#160;&#160;1:BK &#160;&#160;&#160;</text>
<text text-anchor="start" x="500.5" y="-158.95" font-family="arial" font-size="14.00">J1_Peripheral:1:GND</text>
<polygon fill="#000000" stroke="none" points="315.75,-152.5 315.75,-154.5 635.25,-154.5 635.25,-152.5 315.75,-152.5"/>
<polygon fill="#000000" stroke="none" points="315.75,-150.5 315.75,-152.5 635.25,-152.5 635.25,-150.5 315.75,-150.5"/>
<polygon fill="#000000" stroke="none" points="315.75,-148.5 315.75,-150.5 635.25,-150.5 635.25,-148.5 315.75,-148.5"/>
<text text-anchor="start" x="323.75" y="-133.2" font-family="arial" font-size="14.00">J1_Main:2:SCL</text>
<text text-anchor="start" x="426.75" y="-133.2" font-family="arial" font-size="14.00"> &#160;&#160;&#160;&#160;2:GN &#160;&#160;&#160;</text>
<text text-anchor="start" x="502.75" y="-133.2" font-family="arial" font-size="14.00">J1_Peripheral:2:SCL</text>
<polygon fill="#000000" stroke="none" points="315.75,-126.75 315.75,-128.75 635.25,-128.75 635.25,-126.75 315.75,-126.75"/>
<polygon fill="#00ff00" stroke="none" points="315.75,-124.75 315.75,-126.75 635.25,-126.75 635.25,-124.75 315.75,-124.75"/>
<polygon fill="#000000" stroke="none" points="315.75,-122.75 315.75,-124.75 635.25,-124.75 635.25,-122.75 315.75,-122.75"/>
<text text-anchor="start" x="323" y="-107.45" font-family="arial" font-size="14.00">J1_Main:3:SDA</text>
<text text-anchor="start" x="426.75" y="-107.45" font-family="arial" font-size="14.00"> &#160;&#160;&#160;&#160;3:GN &#160;&#160;&#160;</text>
<text text-anchor="start" x="502" y="-107.45" font-family="arial" font-size="14.00">J1_Peripheral:3:SDA</text>
<polygon fill="#000000" stroke="none" points="315.75,-101 315.75,-103 635.25,-103 635.25,-101 315.75,-101"/>
<polygon fill="#00ff00" stroke="none" points="315.75,-99 315.75,-101 635.25,-101 635.25,-99 315.75,-99"/>
<polygon fill="#000000" stroke="none" points="315.75,-97 315.75,-99 635.25,-99 635.25,-97 315.75,-97"/>
<text text-anchor="start" x="317.75" y="-81.7" font-family="arial" font-size="14.00">J1_Main:4:INT_A</text>
<text text-anchor="start" x="426.75" y="-81.7" font-family="arial" font-size="14.00"> &#160;&#160;&#160;&#160;4:GN &#160;&#160;&#160;</text>
<text text-anchor="start" x="496.75" y="-81.7" font-family="arial" font-size="14.00">J1_Peripheral:4:INT_A</text>
<polygon fill="#000000" stroke="none" points="315.75,-75.25 315.75,-77.25 635.25,-77.25 635.25,-75.25 315.75,-75.25"/>
<polygon fill="#00ff00" stroke="none" points="315.75,-73.25 315.75,-75.25 635.25,-75.25 635.25,-73.25 315.75,-73.25"/>
<polygon fill="#000000" stroke="none" points="315.75,-71.25 315.75,-73.25 635.25,-73.25 635.25,-71.25 315.75,-71.25"/>
<text text-anchor="start" x="317.75" y="-55.95" font-family="arial" font-size="14.00">J1_Main:5:INT_B</text>
<text text-anchor="start" x="426.75" y="-55.95" font-family="arial" font-size="14.00"> &#160;&#160;&#160;&#160;5:GN &#160;&#160;&#160;</text>
<text text-anchor="start" x="496.75" y="-55.95" font-family="arial" font-size="14.00">J1_Peripheral:5:INT_B</text>
<polygon fill="#000000" stroke="none" points="315.75,-49.5 315.75,-51.5 635.25,-51.5 635.25,-49.5 315.75,-49.5"/>
<polygon fill="#00ff00" stroke="none" points="315.75,-47.5 315.75,-49.5 635.25,-49.5 635.25,-47.5 315.75,-47.5"/>
<polygon fill="#000000" stroke="none" points="315.75,-45.5 315.75,-47.5 635.25,-47.5 635.25,-45.5 315.75,-45.5"/>
<text text-anchor="start" x="323" y="-30.2" font-family="arial" font-size="14.00">J1_Main:6:3.3V</text>
<text text-anchor="start" x="427.5" y="-30.2" font-family="arial" font-size="14.00"> &#160;&#160;&#160;&#160;6:RD &#160;&#160;&#160;</text>
<text text-anchor="start" x="502" y="-30.2" font-family="arial" font-size="14.00">J1_Peripheral:6:3.3V</text>
<polygon fill="#000000" stroke="none" points="315.75,-23.75 315.75,-25.75 635.25,-25.75 635.25,-23.75 315.75,-23.75"/>
<polygon fill="#ff0000" stroke="none" points="315.75,-21.75 315.75,-23.75 635.25,-23.75 635.25,-21.75 315.75,-21.75"/>
<polygon fill="#000000" stroke="none" points="315.75,-19.75 315.75,-21.75 635.25,-21.75 635.25,-19.75 315.75,-19.75"/>
<text text-anchor="start" x="368.38" y="-4.45" font-family="arial" font-size="14.00"> </text>
</g>
<!-- J1_Main&#45;&#45;Cable_1 -->
<g id="edge1" class="edge">
<title>J1_Main:e&#45;&#45;Cable_1:w</title>
<path fill="none" stroke="#000000" stroke-width="2" d="M171.75,-145.38C236.28,-145.44 252.22,-149.56 315.75,-149.5"/>
<path fill="none" stroke="#000000" stroke-width="2" d="M171.75,-147.38C235.78,-147.38 251.72,-151.5 315.75,-151.5"/>
<path fill="none" stroke="#000000" stroke-width="2" d="M171.75,-149.37C235.28,-149.31 251.22,-153.44 315.75,-153.5"/>
</g>
<!-- J1_Main&#45;&#45;Cable_1 -->
<g id="edge3" class="edge">
<title>J1_Main:e&#45;&#45;Cable_1:w</title>
<path fill="none" stroke="#000000" stroke-width="2" d="M171.75,-121.63C236.02,-121.64 252.01,-123.77 315.75,-123.75"/>
<path fill="none" stroke="#00ff00" stroke-width="2" d="M171.75,-123.62C235.76,-123.63 251.74,-125.75 315.75,-125.75"/>
<path fill="none" stroke="#000000" stroke-width="2" d="M171.75,-125.62C235.49,-125.61 251.48,-127.73 315.75,-127.75"/>
</g>
<!-- J1_Main&#45;&#45;Cable_1 -->
<g id="edge5" class="edge">
<title>J1_Main:e&#45;&#45;Cable_1:w</title>
<path fill="none" stroke="#000000" stroke-width="2" d="M171.75,-97.88C235.77,-97.88 251.77,-98 315.75,-98"/>
<path fill="none" stroke="#00ff00" stroke-width="2" d="M171.75,-99.87C235.75,-99.87 251.75,-100 315.75,-100"/>
<path fill="none" stroke="#000000" stroke-width="2" d="M171.75,-101.87C235.73,-101.87 251.73,-102 315.75,-102"/>
</g>
<!-- J1_Main&#45;&#45;Cable_1 -->
<g id="edge7" class="edge">
<title>J1_Main:e&#45;&#45;Cable_1:w</title>
<path fill="none" stroke="#000000" stroke-width="2" d="M171.75,-74.13C235.52,-74.14 251.51,-72.26 315.75,-72.25"/>
<path fill="none" stroke="#00ff00" stroke-width="2" d="M171.75,-76.12C235.76,-76.13 251.74,-74.25 315.75,-74.25"/>
<path fill="none" stroke="#000000" stroke-width="2" d="M171.75,-78.12C235.99,-78.11 251.98,-76.24 315.75,-76.25"/>
</g>
<!-- J1_Main&#45;&#45;Cable_1 -->
<g id="edge9" class="edge">
<title>J1_Main:e&#45;&#45;Cable_1:w</title>
<path fill="none" stroke="#000000" stroke-width="2" d="M171.75,-50.38C235.3,-50.43 251.25,-46.56 315.75,-46.5"/>
<path fill="none" stroke="#00ff00" stroke-width="2" d="M171.75,-52.38C235.77,-52.38 251.73,-48.5 315.75,-48.5"/>
<path fill="none" stroke="#000000" stroke-width="2" d="M171.75,-54.37C236.25,-54.32 252.2,-50.44 315.75,-50.5"/>
</g>
<!-- J1_Main&#45;&#45;Cable_1 -->
<g id="edge11" class="edge">
<title>J1_Main:e&#45;&#45;Cable_1:w</title>
<path fill="none" stroke="#000000" stroke-width="2" d="M171.75,-26.63C235.11,-26.75 251,-20.87 315.75,-20.75"/>
<path fill="none" stroke="#ff0000" stroke-width="2" d="M171.75,-28.62C235.8,-28.62 251.7,-22.75 315.75,-22.75"/>
<path fill="none" stroke="#000000" stroke-width="2" d="M171.75,-30.62C236.5,-30.5 252.39,-24.63 315.75,-24.75"/>
</g>
<!-- J1_Peripheral -->
<g id="node2" class="node">
<title>J1_Peripheral</title>
<polygon fill="#ffffff" stroke="black" points="951,-206.75 779.25,-206.75 779.25,-16.75 951,-16.75 951,-206.75"/>
<polygon fill="none" stroke="black" points="779.25,-183 779.25,-206.75 951,-206.75 951,-183 779.25,-183"/>
<text text-anchor="start" x="823.5" y="-189.45" font-family="arial" font-size="14.00">J1_Peripheral</text>
<polygon fill="none" stroke="black" points="779.25,-159.25 779.25,-183 863.75,-183 863.75,-159.25 779.25,-159.25"/>
<text text-anchor="start" x="783.25" y="-165.7" font-family="arial" font-size="14.00">JST B6B&#45;XH</text>
<polygon fill="none" stroke="black" points="863.75,-159.25 863.75,-183 913,-183 913,-159.25 863.75,-159.25"/>
<text text-anchor="start" x="867.75" y="-165.7" font-family="arial" font-size="14.00">female</text>
<polygon fill="none" stroke="black" points="913,-159.25 913,-183 951,-183 951,-159.25 913,-159.25"/>
<text text-anchor="start" x="917" y="-165.7" font-family="arial" font-size="14.00">6&#45;pin</text>
<polygon fill="none" stroke="black" points="779.25,-135.5 779.25,-159.25 849.75,-159.25 849.75,-135.5 779.25,-135.5"/>
<text text-anchor="start" x="810.75" y="-141.95" font-family="arial" font-size="14.00">1</text>
<polygon fill="none" stroke="black" points="849.75,-135.5 849.75,-159.25 951,-159.25 951,-135.5 849.75,-135.5"/>
<text text-anchor="start" x="885" y="-141.95" font-family="arial" font-size="14.00">GND</text>
<polygon fill="none" stroke="black" points="779.25,-111.75 779.25,-135.5 849.75,-135.5 849.75,-111.75 779.25,-111.75"/>
<text text-anchor="start" x="810.75" y="-118.2" font-family="arial" font-size="14.00">2</text>
<polygon fill="none" stroke="black" points="849.75,-111.75 849.75,-135.5 951,-135.5 951,-111.75 849.75,-111.75"/>
<text text-anchor="start" x="887.25" y="-118.2" font-family="arial" font-size="14.00">SCL</text>
<polygon fill="none" stroke="black" points="779.25,-88 779.25,-111.75 849.75,-111.75 849.75,-88 779.25,-88"/>
<text text-anchor="start" x="810.75" y="-94.45" font-family="arial" font-size="14.00">3</text>
<polygon fill="none" stroke="black" points="849.75,-88 849.75,-111.75 951,-111.75 951,-88 849.75,-88"/>
<text text-anchor="start" x="886.5" y="-94.45" font-family="arial" font-size="14.00">SDA</text>
<polygon fill="none" stroke="black" points="779.25,-64.25 779.25,-88 849.75,-88 849.75,-64.25 779.25,-64.25"/>
<text text-anchor="start" x="810.75" y="-70.7" font-family="arial" font-size="14.00">4</text>
<polygon fill="none" stroke="black" points="849.75,-64.25 849.75,-88 951,-88 951,-64.25 849.75,-64.25"/>
<text text-anchor="start" x="881.25" y="-70.7" font-family="arial" font-size="14.00">INT_A</text>
<polygon fill="none" stroke="black" points="779.25,-40.5 779.25,-64.25 849.75,-64.25 849.75,-40.5 779.25,-40.5"/>
<text text-anchor="start" x="810.75" y="-46.95" font-family="arial" font-size="14.00">5</text>
<polygon fill="none" stroke="black" points="849.75,-40.5 849.75,-64.25 951,-64.25 951,-40.5 849.75,-40.5"/>
<text text-anchor="start" x="881.25" y="-46.95" font-family="arial" font-size="14.00">INT_B</text>
<polygon fill="none" stroke="black" points="779.25,-16.75 779.25,-40.5 849.75,-40.5 849.75,-16.75 779.25,-16.75"/>
<text text-anchor="start" x="810.75" y="-23.2" font-family="arial" font-size="14.00">6</text>
<polygon fill="none" stroke="black" points="849.75,-16.75 849.75,-40.5 951,-40.5 951,-16.75 849.75,-16.75"/>
<text text-anchor="start" x="886.5" y="-23.2" font-family="arial" font-size="14.00">3.3V</text>
</g>
<!-- Cable_1&#45;&#45;J1_Peripheral -->
<g id="edge2" class="edge">
<title>Cable_1:e&#45;&#45;J1_Peripheral:w</title>
<path fill="none" stroke="#000000" stroke-width="2" d="M635.25,-149.5C698.78,-149.56 714.72,-145.44 779.25,-145.38"/>
<path fill="none" stroke="#000000" stroke-width="2" d="M635.25,-151.5C699.28,-151.5 715.22,-147.38 779.25,-147.38"/>
<path fill="none" stroke="#000000" stroke-width="2" d="M635.25,-153.5C699.78,-153.44 715.72,-149.31 779.25,-149.37"/>
</g>
<!-- Cable_1&#45;&#45;J1_Peripheral -->
<g id="edge4" class="edge">
<title>Cable_1:e&#45;&#45;J1_Peripheral:w</title>
<path fill="none" stroke="#000000" stroke-width="2" d="M635.25,-123.75C698.99,-123.77 714.98,-121.64 779.25,-121.63"/>
<path fill="none" stroke="#00ff00" stroke-width="2" d="M635.25,-125.75C699.26,-125.75 715.24,-123.63 779.25,-123.62"/>
<path fill="none" stroke="#000000" stroke-width="2" d="M635.25,-127.75C699.52,-127.73 715.51,-125.61 779.25,-125.62"/>
</g>
<!-- Cable_1&#45;&#45;J1_Peripheral -->
<g id="edge6" class="edge">
<title>Cable_1:e&#45;&#45;J1_Peripheral:w</title>
<path fill="none" stroke="#000000" stroke-width="2" d="M635.25,-98C699.23,-98 715.23,-97.88 779.25,-97.88"/>
<path fill="none" stroke="#00ff00" stroke-width="2" d="M635.25,-100C699.25,-100 715.25,-99.87 779.25,-99.87"/>
<path fill="none" stroke="#000000" stroke-width="2" d="M635.25,-102C699.27,-102 715.27,-101.87 779.25,-101.87"/>
</g>
<!-- Cable_1&#45;&#45;J1_Peripheral -->
<g id="edge8" class="edge">
<title>Cable_1:e&#45;&#45;J1_Peripheral:w</title>
<path fill="none" stroke="#000000" stroke-width="2" d="M635.25,-72.25C699.49,-72.26 715.48,-74.14 779.25,-74.13"/>
<path fill="none" stroke="#00ff00" stroke-width="2" d="M635.25,-74.25C699.26,-74.25 715.24,-76.13 779.25,-76.12"/>
<path fill="none" stroke="#000000" stroke-width="2" d="M635.25,-76.25C699.02,-76.24 715.01,-78.11 779.25,-78.12"/>
</g>
<!-- Cable_1&#45;&#45;J1_Peripheral -->
<g id="edge10" class="edge">
<title>Cable_1:e&#45;&#45;J1_Peripheral:w</title>
<path fill="none" stroke="#000000" stroke-width="2" d="M635.25,-46.5C699.75,-46.56 715.7,-50.43 779.25,-50.38"/>
<path fill="none" stroke="#00ff00" stroke-width="2" d="M635.25,-48.5C699.27,-48.5 715.23,-52.38 779.25,-52.38"/>
<path fill="none" stroke="#000000" stroke-width="2" d="M635.25,-50.5C698.8,-50.44 714.75,-54.32 779.25,-54.37"/>
</g>
<!-- Cable_1&#45;&#45;J1_Peripheral -->
<g id="edge12" class="edge">
<title>Cable_1:e&#45;&#45;J1_Peripheral:w</title>
<path fill="none" stroke="#000000" stroke-width="2" d="M635.25,-20.75C700,-20.87 715.89,-26.75 779.25,-26.63"/>
<path fill="none" stroke="#ff0000" stroke-width="2" d="M635.25,-22.75C699.3,-22.75 715.2,-28.62 779.25,-28.62"/>
<path fill="none" stroke="#000000" stroke-width="2" d="M635.25,-24.75C698.61,-24.63 714.5,-30.5 779.25,-30.62"/>
</g>
</g>
</svg>
