<?xml version="1.0" encoding="UTF-8" standalone="no"?>
<!DOCTYPE svg PUBLIC "-//W3C//DTD SVG 1.1//EN"
 "http://www.w3.org/Graphics/SVG/1.1/DTD/svg11.dtd">
<!-- Generated by graphviz version 12.2.1 (20241206.2353)
 -->
<!-- Pages: 1 -->
<svg width="971pt" height="841pt"
 viewBox="0.00 0.00 971.00 841.38" xmlns="http://www.w3.org/2000/svg" xmlns:xlink="http://www.w3.org/1999/xlink">
<g id="graph0" class="graph" transform="scale(1 1) rotate(0) translate(4 837.38)">
<polygon fill="#ffffff" stroke="none" points="-4,4 -4,-837.38 967,-837.38 967,4 -4,4"/>
<!-- MC2_CAN -->
<g id="node1" class="node">
<title>MC2_CAN</title>
<polygon fill="#ffffff" stroke="black" points="171.75,-814.25 0,-814.25 0,-648 171.75,-648 171.75,-814.25"/>
<polygon fill="none" stroke="black" points="0,-790.5 0,-814.25 171.75,-814.25 171.75,-790.5 0,-790.5"/>
<text text-anchor="start" x="53.25" y="-796.95" font-family="arial" font-size="14.00">MC2_CAN</text>
<polygon fill="none" stroke="black" points="0,-766.75 0,-790.5 84.5,-790.5 84.5,-766.75 0,-766.75"/>
<text text-anchor="start" x="4" y="-773.2" font-family="arial" font-size="14.00">JST B5B&#45;XH</text>
<polygon fill="none" stroke="black" points="84.5,-766.75 84.5,-790.5 133.75,-790.5 133.75,-766.75 84.5,-766.75"/>
<text text-anchor="start" x="88.5" y="-773.2" font-family="arial" font-size="14.00">female</text>
<polygon fill="none" stroke="black" points="133.75,-766.75 133.75,-790.5 171.75,-790.5 171.75,-766.75 133.75,-766.75"/>
<text text-anchor="start" x="137.75" y="-773.2" font-family="arial" font-size="14.00">5&#45;pin</text>
<polygon fill="none" stroke="black" points="0,-743 0,-766.75 105,-766.75 105,-743 0,-743"/>
<text text-anchor="start" x="30.75" y="-749.45" font-family="arial" font-size="14.00">CAN_L</text>
<polygon fill="none" stroke="black" points="105,-743 105,-766.75 171.75,-766.75 171.75,-743 105,-743"/>
<text text-anchor="start" x="134.62" y="-749.45" font-family="arial" font-size="14.00">1</text>
<polygon fill="none" stroke="black" points="0,-719.25 0,-743 105,-743 105,-719.25 0,-719.25"/>
<text text-anchor="start" x="30.75" y="-725.7" font-family="arial" font-size="14.00">CAN_L</text>
<polygon fill="none" stroke="black" points="105,-719.25 105,-743 171.75,-743 171.75,-719.25 105,-719.25"/>
<text text-anchor="start" x="134.62" y="-725.7" font-family="arial" font-size="14.00">2</text>
<polygon fill="none" stroke="black" points="0,-695.5 0,-719.25 105,-719.25 105,-695.5 0,-695.5"/>
<text text-anchor="start" x="29.62" y="-701.95" font-family="arial" font-size="14.00">CAN_H</text>
<polygon fill="none" stroke="black" points="105,-695.5 105,-719.25 171.75,-719.25 171.75,-695.5 105,-695.5"/>
<text text-anchor="start" x="134.62" y="-701.95" font-family="arial" font-size="14.00">3</text>
<polygon fill="none" stroke="black" points="0,-671.75 0,-695.5 105,-695.5 105,-671.75 0,-671.75"/>
<text text-anchor="start" x="29.62" y="-678.2" font-family="arial" font-size="14.00">CAN_H</text>
<polygon fill="none" stroke="black" points="105,-671.75 105,-695.5 171.75,-695.5 171.75,-671.75 105,-671.75"/>
<text text-anchor="start" x="134.62" y="-678.2" font-family="arial" font-size="14.00">4</text>
<polygon fill="none" stroke="black" points="0,-648 0,-671.75 105,-671.75 105,-648 0,-648"/>
<text text-anchor="start" x="37.12" y="-654.45" font-family="arial" font-size="14.00">GND</text>
<polygon fill="none" stroke="black" points="105,-648 105,-671.75 171.75,-671.75 171.75,-648 105,-648"/>
<text text-anchor="start" x="134.62" y="-654.45" font-family="arial" font-size="14.00">5</text>
</g>
<!-- W1 -->
<g id="node7" class="node">
<title>W1</title>
<polygon fill="#ffffff" stroke="black" stroke-dasharray="5,2" points="640.88,-833.38 322.12,-833.38 322.12,-694.88 640.88,-694.88 640.88,-833.38"/>
<polygon fill="none" stroke="black" points="322.12,-809.62 322.12,-833.38 640.88,-833.38 640.88,-809.62 322.12,-809.62"/>
<text text-anchor="start" x="471" y="-816.08" font-family="arial" font-size="14.00">W1</text>
<polygon fill="none" stroke="black" points="322.12,-785.88 322.12,-809.62 462.75,-809.62 462.75,-785.88 322.12,-785.88"/>
<text text-anchor="start" x="385.31" y="-792.33" font-family="arial" font-size="14.00">2x</text>
<polygon fill="none" stroke="black" points="462.75,-785.88 462.75,-809.62 640.88,-809.62 640.88,-785.88 462.75,-785.88"/>
<text text-anchor="start" x="525.94" y="-792.33" font-family="arial" font-size="14.00">22 AWG</text>
<text text-anchor="start" x="385.25" y="-770.58" font-family="arial" font-size="14.00"> </text>
<text text-anchor="start" x="325.25" y="-750.83" font-family="arial" font-size="14.00">MC2_CAN:1:CAN_L</text>
<text text-anchor="start" x="454.12" y="-750.83" font-family="arial" font-size="14.00"> &#160;&#160;&#160;&#160;GN &#160;&#160;&#160;</text>
<text text-anchor="start" x="514" y="-750.83" font-family="arial" font-size="14.00">MC1_CAN:1:CAN_L</text>
<polygon fill="#000000" stroke="none" points="322.12,-744.38 322.12,-746.38 640.88,-746.38 640.88,-744.38 322.12,-744.38"/>
<polygon fill="#00ff00" stroke="none" points="322.12,-742.38 322.12,-744.38 640.88,-744.38 640.88,-742.38 322.12,-742.38"/>
<polygon fill="#000000" stroke="none" points="322.12,-740.38 322.12,-742.38 640.88,-742.38 640.88,-740.38 322.12,-740.38"/>
<text text-anchor="start" x="324.12" y="-725.08" font-family="arial" font-size="14.00">MC2_CAN:3:CAN_H</text>
<text text-anchor="start" x="455.62" y="-725.08" font-family="arial" font-size="14.00"> &#160;&#160;&#160;&#160;YE &#160;&#160;&#160;</text>
<text text-anchor="start" x="512.88" y="-725.08" font-family="arial" font-size="14.00">MC1_CAN:3:CAN_H</text>
<polygon fill="#000000" stroke="none" points="322.12,-718.62 322.12,-720.62 640.88,-720.62 640.88,-718.62 322.12,-718.62"/>
<polygon fill="#ffff00" stroke="none" points="322.12,-716.62 322.12,-718.62 640.88,-718.62 640.88,-716.62 322.12,-716.62"/>
<polygon fill="#000000" stroke="none" points="322.12,-714.62 322.12,-716.62 640.88,-716.62 640.88,-714.62 322.12,-714.62"/>
<text text-anchor="start" x="385.25" y="-699.33" font-family="arial" font-size="14.00"> </text>
</g>
<!-- MC2_CAN&#45;&#45;W1 -->
<g id="edge1" class="edge">
<title>MC2_CAN:e&#45;&#45;W1:w</title>
<path fill="none" stroke="#000000" stroke-width="2" d="M171.75,-752.88C237.18,-753.24 253.38,-741.74 321.12,-741.38"/>
<path fill="none" stroke="#00ff00" stroke-width="2" d="M171.75,-754.88C238.34,-754.88 254.54,-743.38 321.12,-743.38"/>
<path fill="none" stroke="#000000" stroke-width="2" d="M171.75,-756.87C239.49,-756.51 255.7,-745.01 321.12,-745.37"/>
</g>
<!-- MC2_CAN&#45;&#45;W1 -->
<g id="edge3" class="edge">
<title>MC2_CAN:e&#45;&#45;W1:w</title>
<path fill="none" stroke="#000000" stroke-width="2" d="M171.75,-705.38C239.36,-705.68 255.65,-715.93 321.12,-715.63"/>
<path fill="none" stroke="#ffff00" stroke-width="2" d="M171.75,-707.38C238.3,-707.38 254.58,-717.63 321.12,-717.63"/>
<path fill="none" stroke="#000000" stroke-width="2" d="M171.75,-709.37C237.23,-709.07 253.51,-719.32 321.12,-719.62"/>
</g>
<!-- MC1_CAN -->
<g id="node2" class="node">
<title>MC1_CAN</title>
<polygon fill="#ffffff" stroke="black" points="963,-744.25 791.25,-744.25 791.25,-578 963,-578 963,-744.25"/>
<polygon fill="none" stroke="black" points="791.25,-720.5 791.25,-744.25 963,-744.25 963,-720.5 791.25,-720.5"/>
<text text-anchor="start" x="844.5" y="-726.95" font-family="arial" font-size="14.00">MC1_CAN</text>
<polygon fill="none" stroke="black" points="791.25,-696.75 791.25,-720.5 875.75,-720.5 875.75,-696.75 791.25,-696.75"/>
<text text-anchor="start" x="795.25" y="-703.2" font-family="arial" font-size="14.00">JST B5B&#45;XH</text>
<polygon fill="none" stroke="black" points="875.75,-696.75 875.75,-720.5 925,-720.5 925,-696.75 875.75,-696.75"/>
<text text-anchor="start" x="879.75" y="-703.2" font-family="arial" font-size="14.00">female</text>
<polygon fill="none" stroke="black" points="925,-696.75 925,-720.5 963,-720.5 963,-696.75 925,-696.75"/>
<text text-anchor="start" x="929" y="-703.2" font-family="arial" font-size="14.00">5&#45;pin</text>
<polygon fill="none" stroke="black" points="791.25,-673 791.25,-696.75 858,-696.75 858,-673 791.25,-673"/>
<text text-anchor="start" x="820.88" y="-679.45" font-family="arial" font-size="14.00">1</text>
<polygon fill="none" stroke="black" points="858,-673 858,-696.75 963,-696.75 963,-673 858,-673"/>
<text text-anchor="start" x="888.75" y="-679.45" font-family="arial" font-size="14.00">CAN_L</text>
<polygon fill="none" stroke="black" points="791.25,-649.25 791.25,-673 858,-673 858,-649.25 791.25,-649.25"/>
<text text-anchor="start" x="820.88" y="-655.7" font-family="arial" font-size="14.00">2</text>
<polygon fill="none" stroke="black" points="858,-649.25 858,-673 963,-673 963,-649.25 858,-649.25"/>
<text text-anchor="start" x="888.75" y="-655.7" font-family="arial" font-size="14.00">CAN_L</text>
<polygon fill="none" stroke="black" points="791.25,-625.5 791.25,-649.25 858,-649.25 858,-625.5 791.25,-625.5"/>
<text text-anchor="start" x="820.88" y="-631.95" font-family="arial" font-size="14.00">3</text>
<polygon fill="none" stroke="black" points="858,-625.5 858,-649.25 963,-649.25 963,-625.5 858,-625.5"/>
<text text-anchor="start" x="887.62" y="-631.95" font-family="arial" font-size="14.00">CAN_H</text>
<polygon fill="none" stroke="black" points="791.25,-601.75 791.25,-625.5 858,-625.5 858,-601.75 791.25,-601.75"/>
<text text-anchor="start" x="820.88" y="-608.2" font-family="arial" font-size="14.00">4</text>
<polygon fill="none" stroke="black" points="858,-601.75 858,-625.5 963,-625.5 963,-601.75 858,-601.75"/>
<text text-anchor="start" x="887.62" y="-608.2" font-family="arial" font-size="14.00">CAN_H</text>
<polygon fill="none" stroke="black" points="791.25,-578 791.25,-601.75 858,-601.75 858,-578 791.25,-578"/>
<text text-anchor="start" x="820.88" y="-584.45" font-family="arial" font-size="14.00">5</text>
<polygon fill="none" stroke="black" points="858,-578 858,-601.75 963,-601.75 963,-578 858,-578"/>
<text text-anchor="start" x="895.12" y="-584.45" font-family="arial" font-size="14.00">GND</text>
</g>
<!-- Main_J2 -->
<g id="node3" class="node">
<title>Main_J2</title>
<polygon fill="#ffffff" stroke="black" points="171.75,-573.25 0,-573.25 0,-407 171.75,-407 171.75,-573.25"/>
<polygon fill="none" stroke="black" points="0,-549.5 0,-573.25 171.75,-573.25 171.75,-549.5 0,-549.5"/>
<text text-anchor="start" x="60" y="-555.95" font-family="arial" font-size="14.00">Main_J2</text>
<polygon fill="none" stroke="black" points="0,-525.75 0,-549.5 84.5,-549.5 84.5,-525.75 0,-525.75"/>
<text text-anchor="start" x="4" y="-532.2" font-family="arial" font-size="14.00">JST B5B&#45;XH</text>
<polygon fill="none" stroke="black" points="84.5,-525.75 84.5,-549.5 133.75,-549.5 133.75,-525.75 84.5,-525.75"/>
<text text-anchor="start" x="88.5" y="-532.2" font-family="arial" font-size="14.00">female</text>
<polygon fill="none" stroke="black" points="133.75,-525.75 133.75,-549.5 171.75,-549.5 171.75,-525.75 133.75,-525.75"/>
<text text-anchor="start" x="137.75" y="-532.2" font-family="arial" font-size="14.00">5&#45;pin</text>
<polygon fill="none" stroke="black" points="0,-502 0,-525.75 105,-525.75 105,-502 0,-502"/>
<text text-anchor="start" x="30.75" y="-508.45" font-family="arial" font-size="14.00">CAN_L</text>
<polygon fill="none" stroke="black" points="105,-502 105,-525.75 171.75,-525.75 171.75,-502 105,-502"/>
<text text-anchor="start" x="134.62" y="-508.45" font-family="arial" font-size="14.00">1</text>
<polygon fill="none" stroke="black" points="0,-478.25 0,-502 105,-502 105,-478.25 0,-478.25"/>
<text text-anchor="start" x="30.75" y="-484.7" font-family="arial" font-size="14.00">CAN_L</text>
<polygon fill="none" stroke="black" points="105,-478.25 105,-502 171.75,-502 171.75,-478.25 105,-478.25"/>
<text text-anchor="start" x="134.62" y="-484.7" font-family="arial" font-size="14.00">2</text>
<polygon fill="none" stroke="black" points="0,-454.5 0,-478.25 105,-478.25 105,-454.5 0,-454.5"/>
<text text-anchor="start" x="29.62" y="-460.95" font-family="arial" font-size="14.00">CAN_H</text>
<polygon fill="none" stroke="black" points="105,-454.5 105,-478.25 171.75,-478.25 171.75,-454.5 105,-454.5"/>
<text text-anchor="start" x="134.62" y="-460.95" font-family="arial" font-size="14.00">3</text>
<polygon fill="none" stroke="black" points="0,-430.75 0,-454.5 105,-454.5 105,-430.75 0,-430.75"/>
<text text-anchor="start" x="29.62" y="-437.2" font-family="arial" font-size="14.00">CAN_H</text>
<polygon fill="none" stroke="black" points="105,-430.75 105,-454.5 171.75,-454.5 171.75,-430.75 105,-430.75"/>
<text text-anchor="start" x="134.62" y="-437.2" font-family="arial" font-size="14.00">4</text>
<polygon fill="none" stroke="black" points="0,-407 0,-430.75 105,-430.75 105,-407 0,-407"/>
<text text-anchor="start" x="37.12" y="-413.45" font-family="arial" font-size="14.00">GND</text>
<polygon fill="none" stroke="black" points="105,-407 105,-430.75 171.75,-430.75 171.75,-407 105,-407"/>
<text text-anchor="start" x="134.62" y="-413.45" font-family="arial" font-size="14.00">5</text>
</g>
<!-- W3 -->
<g id="node8" class="node">
<title>W3</title>
<polygon fill="#ffffff" stroke="black" stroke-dasharray="5,2" points="634.12,-507.38 328.88,-507.38 328.88,-368.88 634.12,-368.88 634.12,-507.38"/>
<polygon fill="none" stroke="black" points="328.88,-483.62 328.88,-507.38 634.12,-507.38 634.12,-483.62 328.88,-483.62"/>
<text text-anchor="start" x="471" y="-490.07" font-family="arial" font-size="14.00">W3</text>
<polygon fill="none" stroke="black" points="328.88,-459.88 328.88,-483.62 462.75,-483.62 462.75,-459.88 328.88,-459.88"/>
<text text-anchor="start" x="388.69" y="-466.32" font-family="arial" font-size="14.00">2x</text>
<polygon fill="none" stroke="black" points="462.75,-459.88 462.75,-483.62 634.12,-483.62 634.12,-459.88 462.75,-459.88"/>
<text text-anchor="start" x="522.56" y="-466.32" font-family="arial" font-size="14.00">22 AWG</text>
<text text-anchor="start" x="385.25" y="-444.57" font-family="arial" font-size="14.00"> </text>
<text text-anchor="start" x="332" y="-424.82" font-family="arial" font-size="14.00">Main_J2:2:CAN_L</text>
<text text-anchor="start" x="447.38" y="-424.82" font-family="arial" font-size="14.00"> &#160;&#160;&#160;&#160;GN &#160;&#160;&#160;</text>
<text text-anchor="start" x="507.25" y="-424.82" font-family="arial" font-size="14.00">MC3_CAN:1:CAN_L</text>
<polygon fill="#000000" stroke="none" points="328.88,-418.38 328.88,-420.38 634.12,-420.38 634.12,-418.38 328.88,-418.38"/>
<polygon fill="#00ff00" stroke="none" points="328.88,-416.38 328.88,-418.38 634.12,-418.38 634.12,-416.38 328.88,-416.38"/>
<polygon fill="#000000" stroke="none" points="328.88,-414.38 328.88,-416.38 634.12,-416.38 634.12,-414.38 328.88,-414.38"/>
<text text-anchor="start" x="330.88" y="-399.07" font-family="arial" font-size="14.00">Main_J2:4:CAN_H</text>
<text text-anchor="start" x="448.88" y="-399.07" font-family="arial" font-size="14.00"> &#160;&#160;&#160;&#160;YE &#160;&#160;&#160;</text>
<text text-anchor="start" x="506.12" y="-399.07" font-family="arial" font-size="14.00">MC3_CAN:3:CAN_H</text>
<polygon fill="#000000" stroke="none" points="328.88,-392.62 328.88,-394.62 634.12,-394.62 634.12,-392.62 328.88,-392.62"/>
<polygon fill="#ffff00" stroke="none" points="328.88,-390.62 328.88,-392.62 634.12,-392.62 634.12,-390.62 328.88,-390.62"/>
<polygon fill="#000000" stroke="none" points="328.88,-388.62 328.88,-390.62 634.12,-390.62 634.12,-388.62 328.88,-388.62"/>
<text text-anchor="start" x="385.25" y="-373.32" font-family="arial" font-size="14.00"> </text>
</g>
<!-- Main_J2&#45;&#45;W3 -->
<g id="edge5" class="edge">
<title>Main_J2:e&#45;&#45;W3:w</title>
<path fill="none" stroke="#000000" stroke-width="2" d="M171.75,-488.13C246.3,-490.04 249.32,-417.29 327.88,-415.38"/>
<path fill="none" stroke="#00ff00" stroke-width="2" d="M171.75,-490.12C248.3,-490.12 251.32,-417.38 327.88,-417.37"/>
<path fill="none" stroke="#000000" stroke-width="2" d="M171.75,-492.12C250.3,-490.21 253.32,-417.46 327.88,-419.37"/>
</g>
<!-- Main_J2&#45;&#45;W3 -->
<g id="edge7" class="edge">
<title>Main_J2:e&#45;&#45;W3:w</title>
<path fill="none" stroke="#000000" stroke-width="2" d="M171.75,-440.63C242.79,-442.24 252.92,-391.24 327.88,-389.63"/>
<path fill="none" stroke="#ffff00" stroke-width="2" d="M171.75,-442.62C244.75,-442.62 254.88,-391.62 327.88,-391.62"/>
<path fill="none" stroke="#000000" stroke-width="2" d="M171.75,-444.62C246.71,-443.01 256.84,-392.01 327.88,-393.62"/>
</g>
<!-- W2 -->
<g id="node9" class="node">
<title>W2</title>
<polygon fill="#ffffff" stroke="black" stroke-dasharray="5,2" points="634.12,-670.38 328.88,-670.38 328.88,-531.88 634.12,-531.88 634.12,-670.38"/>
<polygon fill="none" stroke="black" points="328.88,-646.62 328.88,-670.38 634.12,-670.38 634.12,-646.62 328.88,-646.62"/>
<text text-anchor="start" x="471" y="-653.08" font-family="arial" font-size="14.00">W2</text>
<polygon fill="none" stroke="black" points="328.88,-622.88 328.88,-646.62 462.75,-646.62 462.75,-622.88 328.88,-622.88"/>
<text text-anchor="start" x="388.69" y="-629.33" font-family="arial" font-size="14.00">2x</text>
<polygon fill="none" stroke="black" points="462.75,-622.88 462.75,-646.62 634.12,-646.62 634.12,-622.88 462.75,-622.88"/>
<text text-anchor="start" x="522.56" y="-629.33" font-family="arial" font-size="14.00">22 AWG</text>
<text text-anchor="start" x="385.25" y="-607.58" font-family="arial" font-size="14.00"> </text>
<text text-anchor="start" x="332" y="-587.83" font-family="arial" font-size="14.00">Main_J2:1:CAN_L</text>
<text text-anchor="start" x="447.38" y="-587.83" font-family="arial" font-size="14.00"> &#160;&#160;&#160;&#160;GN &#160;&#160;&#160;</text>
<text text-anchor="start" x="507.25" y="-587.83" font-family="arial" font-size="14.00">MC1_CAN:2:CAN_L</text>
<polygon fill="#000000" stroke="none" points="328.88,-581.38 328.88,-583.38 634.12,-583.38 634.12,-581.38 328.88,-581.38"/>
<polygon fill="#00ff00" stroke="none" points="328.88,-579.38 328.88,-581.38 634.12,-581.38 634.12,-579.38 328.88,-579.38"/>
<polygon fill="#000000" stroke="none" points="328.88,-577.38 328.88,-579.38 634.12,-579.38 634.12,-577.38 328.88,-577.38"/>
<text text-anchor="start" x="330.88" y="-562.08" font-family="arial" font-size="14.00">Main_J2:3:CAN_H</text>
<text text-anchor="start" x="448.88" y="-562.08" font-family="arial" font-size="14.00"> &#160;&#160;&#160;&#160;YE &#160;&#160;&#160;</text>
<text text-anchor="start" x="506.12" y="-562.08" font-family="arial" font-size="14.00">MC1_CAN:4:CAN_H</text>
<polygon fill="#000000" stroke="none" points="328.88,-555.62 328.88,-557.62 634.12,-557.62 634.12,-555.62 328.88,-555.62"/>
<polygon fill="#ffff00" stroke="none" points="328.88,-553.62 328.88,-555.62 634.12,-555.62 634.12,-553.62 328.88,-553.62"/>
<polygon fill="#000000" stroke="none" points="328.88,-551.62 328.88,-553.62 634.12,-553.62 634.12,-551.62 328.88,-551.62"/>
<text text-anchor="start" x="385.25" y="-536.33" font-family="arial" font-size="14.00"> </text>
</g>
<!-- Main_J2&#45;&#45;W2 -->
<g id="edge9" class="edge">
<title>Main_J2:e&#45;&#45;W2:w</title>
<path fill="none" stroke="#000000" stroke-width="2" d="M171.75,-511.88C249.16,-513.72 254.45,-580.22 327.88,-578.38"/>
<path fill="none" stroke="#00ff00" stroke-width="2" d="M171.75,-513.88C247.17,-513.88 252.45,-580.38 327.88,-580.37"/>
<path fill="none" stroke="#000000" stroke-width="2" d="M171.75,-515.87C245.18,-514.03 250.46,-580.53 327.88,-582.37"/>
</g>
<!-- Main_J2&#45;&#45;W2 -->
<g id="edge11" class="edge">
<title>Main_J2:e&#45;&#45;W2:w</title>
<path fill="none" stroke="#000000" stroke-width="2" d="M171.75,-464.38C253.46,-466.45 250.17,-554.7 327.88,-552.63"/>
<path fill="none" stroke="#ffff00" stroke-width="2" d="M171.75,-466.37C251.46,-466.38 248.17,-554.62 327.88,-554.63"/>
<path fill="none" stroke="#000000" stroke-width="2" d="M171.75,-468.37C249.46,-466.3 246.17,-554.55 327.88,-556.62"/>
</g>
<!-- MC3_CAN -->
<g id="node4" class="node">
<title>MC3_CAN</title>
<polygon fill="#ffffff" stroke="black" points="963,-365.25 791.25,-365.25 791.25,-199 963,-199 963,-365.25"/>
<polygon fill="none" stroke="black" points="791.25,-341.5 791.25,-365.25 963,-365.25 963,-341.5 791.25,-341.5"/>
<text text-anchor="start" x="844.5" y="-347.95" font-family="arial" font-size="14.00">MC3_CAN</text>
<polygon fill="none" stroke="black" points="791.25,-317.75 791.25,-341.5 875.75,-341.5 875.75,-317.75 791.25,-317.75"/>
<text text-anchor="start" x="795.25" y="-324.2" font-family="arial" font-size="14.00">JST B5B&#45;XH</text>
<polygon fill="none" stroke="black" points="875.75,-317.75 875.75,-341.5 925,-341.5 925,-317.75 875.75,-317.75"/>
<text text-anchor="start" x="879.75" y="-324.2" font-family="arial" font-size="14.00">female</text>
<polygon fill="none" stroke="black" points="925,-317.75 925,-341.5 963,-341.5 963,-317.75 925,-317.75"/>
<text text-anchor="start" x="929" y="-324.2" font-family="arial" font-size="14.00">5&#45;pin</text>
<polygon fill="none" stroke="black" points="791.25,-294 791.25,-317.75 858,-317.75 858,-294 791.25,-294"/>
<text text-anchor="start" x="820.88" y="-300.45" font-family="arial" font-size="14.00">1</text>
<polygon fill="none" stroke="black" points="858,-294 858,-317.75 963,-317.75 963,-294 858,-294"/>
<text text-anchor="start" x="888.75" y="-300.45" font-family="arial" font-size="14.00">CAN_L</text>
<polygon fill="none" stroke="black" points="791.25,-270.25 791.25,-294 858,-294 858,-270.25 791.25,-270.25"/>
<text text-anchor="start" x="820.88" y="-276.7" font-family="arial" font-size="14.00">2</text>
<polygon fill="none" stroke="black" points="858,-270.25 858,-294 963,-294 963,-270.25 858,-270.25"/>
<text text-anchor="start" x="888.75" y="-276.7" font-family="arial" font-size="14.00">CAN_L</text>
<polygon fill="none" stroke="black" points="791.25,-246.5 791.25,-270.25 858,-270.25 858,-246.5 791.25,-246.5"/>
<text text-anchor="start" x="820.88" y="-252.95" font-family="arial" font-size="14.00">3</text>
<polygon fill="none" stroke="black" points="858,-246.5 858,-270.25 963,-270.25 963,-246.5 858,-246.5"/>
<text text-anchor="start" x="887.62" y="-252.95" font-family="arial" font-size="14.00">CAN_H</text>
<polygon fill="none" stroke="black" points="791.25,-222.75 791.25,-246.5 858,-246.5 858,-222.75 791.25,-222.75"/>
<text text-anchor="start" x="820.88" y="-229.2" font-family="arial" font-size="14.00">4</text>
<polygon fill="none" stroke="black" points="858,-222.75 858,-246.5 963,-246.5 963,-222.75 858,-222.75"/>
<text text-anchor="start" x="887.62" y="-229.2" font-family="arial" font-size="14.00">CAN_H</text>
<polygon fill="none" stroke="black" points="791.25,-199 791.25,-222.75 858,-222.75 858,-199 791.25,-199"/>
<text text-anchor="start" x="820.88" y="-205.45" font-family="arial" font-size="14.00">5</text>
<polygon fill="none" stroke="black" points="858,-199 858,-222.75 963,-222.75 963,-199 858,-199"/>
<text text-anchor="start" x="895.12" y="-205.45" font-family="arial" font-size="14.00">GND</text>
</g>
<!-- MC4_CAN -->
<g id="node5" class="node">
<title>MC4_CAN</title>
<polygon fill="#ffffff" stroke="black" points="171.75,-255.25 0,-255.25 0,-89 171.75,-89 171.75,-255.25"/>
<polygon fill="none" stroke="black" points="0,-231.5 0,-255.25 171.75,-255.25 171.75,-231.5 0,-231.5"/>
<text text-anchor="start" x="53.25" y="-237.95" font-family="arial" font-size="14.00">MC4_CAN</text>
<polygon fill="none" stroke="black" points="0,-207.75 0,-231.5 84.5,-231.5 84.5,-207.75 0,-207.75"/>
<text text-anchor="start" x="4" y="-214.2" font-family="arial" font-size="14.00">JST B5B&#45;XH</text>
<polygon fill="none" stroke="black" points="84.5,-207.75 84.5,-231.5 133.75,-231.5 133.75,-207.75 84.5,-207.75"/>
<text text-anchor="start" x="88.5" y="-214.2" font-family="arial" font-size="14.00">female</text>
<polygon fill="none" stroke="black" points="133.75,-207.75 133.75,-231.5 171.75,-231.5 171.75,-207.75 133.75,-207.75"/>
<text text-anchor="start" x="137.75" y="-214.2" font-family="arial" font-size="14.00">5&#45;pin</text>
<polygon fill="none" stroke="black" points="0,-184 0,-207.75 105,-207.75 105,-184 0,-184"/>
<text text-anchor="start" x="30.75" y="-190.45" font-family="arial" font-size="14.00">CAN_L</text>
<polygon fill="none" stroke="black" points="105,-184 105,-207.75 171.75,-207.75 171.75,-184 105,-184"/>
<text text-anchor="start" x="134.62" y="-190.45" font-family="arial" font-size="14.00">1</text>
<polygon fill="none" stroke="black" points="0,-160.25 0,-184 105,-184 105,-160.25 0,-160.25"/>
<text text-anchor="start" x="30.75" y="-166.7" font-family="arial" font-size="14.00">CAN_L</text>
<polygon fill="none" stroke="black" points="105,-160.25 105,-184 171.75,-184 171.75,-160.25 105,-160.25"/>
<text text-anchor="start" x="134.62" y="-166.7" font-family="arial" font-size="14.00">2</text>
<polygon fill="none" stroke="black" points="0,-136.5 0,-160.25 105,-160.25 105,-136.5 0,-136.5"/>
<text text-anchor="start" x="29.62" y="-142.95" font-family="arial" font-size="14.00">CAN_H</text>
<polygon fill="none" stroke="black" points="105,-136.5 105,-160.25 171.75,-160.25 171.75,-136.5 105,-136.5"/>
<text text-anchor="start" x="134.62" y="-142.95" font-family="arial" font-size="14.00">3</text>
<polygon fill="none" stroke="black" points="0,-112.75 0,-136.5 105,-136.5 105,-112.75 0,-112.75"/>
<text text-anchor="start" x="29.62" y="-119.2" font-family="arial" font-size="14.00">CAN_H</text>
<polygon fill="none" stroke="black" points="105,-112.75 105,-136.5 171.75,-136.5 171.75,-112.75 105,-112.75"/>
<text text-anchor="start" x="134.62" y="-119.2" font-family="arial" font-size="14.00">4</text>
<polygon fill="none" stroke="black" points="0,-89 0,-112.75 105,-112.75 105,-89 0,-89"/>
<text text-anchor="start" x="37.12" y="-95.45" font-family="arial" font-size="14.00">GND</text>
<polygon fill="none" stroke="black" points="105,-89 105,-112.75 171.75,-112.75 171.75,-89 105,-89"/>
<text text-anchor="start" x="134.62" y="-95.45" font-family="arial" font-size="14.00">5</text>
</g>
<!-- W4 -->
<g id="node10" class="node">
<title>W4</title>
<polygon fill="#ffffff" stroke="black" stroke-dasharray="5,2" points="640.88,-344.38 322.12,-344.38 322.12,-205.88 640.88,-205.88 640.88,-344.38"/>
<polygon fill="none" stroke="black" points="322.12,-320.62 322.12,-344.38 640.88,-344.38 640.88,-320.62 322.12,-320.62"/>
<text text-anchor="start" x="471" y="-327.07" font-family="arial" font-size="14.00">W4</text>
<polygon fill="none" stroke="black" points="322.12,-296.88 322.12,-320.62 462.75,-320.62 462.75,-296.88 322.12,-296.88"/>
<text text-anchor="start" x="385.31" y="-303.32" font-family="arial" font-size="14.00">2x</text>
<polygon fill="none" stroke="black" points="462.75,-296.88 462.75,-320.62 640.88,-320.62 640.88,-296.88 462.75,-296.88"/>
<text text-anchor="start" x="525.94" y="-303.32" font-family="arial" font-size="14.00">22 AWG</text>
<text text-anchor="start" x="385.25" y="-281.57" font-family="arial" font-size="14.00"> </text>
<text text-anchor="start" x="325.25" y="-261.82" font-family="arial" font-size="14.00">MC4_CAN:1:CAN_L</text>
<text text-anchor="start" x="454.12" y="-261.82" font-family="arial" font-size="14.00"> &#160;&#160;&#160;&#160;GN &#160;&#160;&#160;</text>
<text text-anchor="start" x="514" y="-261.82" font-family="arial" font-size="14.00">MC3_CAN:2:CAN_L</text>
<polygon fill="#000000" stroke="none" points="322.12,-255.38 322.12,-257.38 640.88,-257.38 640.88,-255.38 322.12,-255.38"/>
<polygon fill="#00ff00" stroke="none" points="322.12,-253.38 322.12,-255.38 640.88,-255.38 640.88,-253.38 322.12,-253.38"/>
<polygon fill="#000000" stroke="none" points="322.12,-251.38 322.12,-253.38 640.88,-253.38 640.88,-251.38 322.12,-251.38"/>
<text text-anchor="start" x="324.12" y="-236.07" font-family="arial" font-size="14.00">MC4_CAN:3:CAN_H</text>
<text text-anchor="start" x="455.62" y="-236.07" font-family="arial" font-size="14.00"> &#160;&#160;&#160;&#160;YE &#160;&#160;&#160;</text>
<text text-anchor="start" x="512.88" y="-236.07" font-family="arial" font-size="14.00">MC3_CAN:4:CAN_H</text>
<polygon fill="#000000" stroke="none" points="322.12,-229.62 322.12,-231.62 640.88,-231.62 640.88,-229.62 322.12,-229.62"/>
<polygon fill="#ffff00" stroke="none" points="322.12,-227.62 322.12,-229.62 640.88,-229.62 640.88,-227.62 322.12,-227.62"/>
<polygon fill="#000000" stroke="none" points="322.12,-225.62 322.12,-227.62 640.88,-227.62 640.88,-225.62 322.12,-225.62"/>
<text text-anchor="start" x="385.25" y="-210.32" font-family="arial" font-size="14.00"> </text>
</g>
<!-- MC4_CAN&#45;&#45;W4 -->
<g id="edge13" class="edge">
<title>MC4_CAN:e&#45;&#45;W4:w</title>
<path fill="none" stroke="#000000" stroke-width="2" d="M171.75,-193.88C245.04,-195.64 251.81,-254.14 321.12,-252.38"/>
<path fill="none" stroke="#00ff00" stroke-width="2" d="M171.75,-195.88C243.05,-195.88 249.83,-254.38 321.12,-254.38"/>
<path fill="none" stroke="#000000" stroke-width="2" d="M171.75,-197.87C241.06,-196.11 247.84,-254.61 321.12,-256.37"/>
</g>
<!-- MC4_CAN&#45;&#45;W4 -->
<g id="edge15" class="edge">
<title>MC4_CAN:e&#45;&#45;W4:w</title>
<path fill="none" stroke="#000000" stroke-width="2" d="M171.75,-146.38C249.11,-148.41 247.76,-228.66 321.12,-226.63"/>
<path fill="none" stroke="#ffff00" stroke-width="2" d="M171.75,-148.38C247.11,-148.37 245.76,-228.62 321.12,-228.63"/>
<path fill="none" stroke="#000000" stroke-width="2" d="M171.75,-150.37C245.11,-148.34 243.76,-228.59 321.12,-230.62"/>
</g>
<!-- W5 -->
<g id="node11" class="node">
<title>W5</title>
<polygon fill="#ffffff" stroke="black" stroke-dasharray="5,2" points="647.25,-181.38 315.75,-181.38 315.75,-42.88 647.25,-42.88 647.25,-181.38"/>
<polygon fill="none" stroke="black" points="315.75,-157.62 315.75,-181.38 647.25,-181.38 647.25,-157.62 315.75,-157.62"/>
<text text-anchor="start" x="471" y="-164.07" font-family="arial" font-size="14.00">W5</text>
<polygon fill="none" stroke="black" points="315.75,-133.88 315.75,-157.62 462.75,-157.62 462.75,-133.88 315.75,-133.88"/>
<text text-anchor="start" x="382.12" y="-140.32" font-family="arial" font-size="14.00">2x</text>
<polygon fill="none" stroke="black" points="462.75,-133.88 462.75,-157.62 647.25,-157.62 647.25,-133.88 462.75,-133.88"/>
<text text-anchor="start" x="529.12" y="-140.32" font-family="arial" font-size="14.00">22 AWG</text>
<text text-anchor="start" x="378.88" y="-118.58" font-family="arial" font-size="14.00"> </text>
<text text-anchor="start" x="318.88" y="-98.83" font-family="arial" font-size="14.00">MC4_CAN:2:CAN_L</text>
<text text-anchor="start" x="447.75" y="-98.83" font-family="arial" font-size="14.00"> &#160;&#160;&#160;&#160;GN &#160;&#160;&#160;</text>
<text text-anchor="start" x="507.62" y="-98.83" font-family="arial" font-size="14.00">Relay_Board:1:CAN_L</text>
<polygon fill="#000000" stroke="none" points="315.75,-92.38 315.75,-94.38 647.25,-94.38 647.25,-92.38 315.75,-92.38"/>
<polygon fill="#00ff00" stroke="none" points="315.75,-90.38 315.75,-92.38 647.25,-92.38 647.25,-90.38 315.75,-90.38"/>
<polygon fill="#000000" stroke="none" points="315.75,-88.38 315.75,-90.38 647.25,-90.38 647.25,-88.38 315.75,-88.38"/>
<text text-anchor="start" x="317.75" y="-73.08" font-family="arial" font-size="14.00">MC4_CAN:4:CAN_H</text>
<text text-anchor="start" x="449.25" y="-73.08" font-family="arial" font-size="14.00"> &#160;&#160;&#160;&#160;YE &#160;&#160;&#160;</text>
<text text-anchor="start" x="506.5" y="-73.08" font-family="arial" font-size="14.00">Relay_Board:3:CAN_H</text>
<polygon fill="#000000" stroke="none" points="315.75,-66.62 315.75,-68.62 647.25,-68.62 647.25,-66.62 315.75,-66.62"/>
<polygon fill="#ffff00" stroke="none" points="315.75,-64.62 315.75,-66.62 647.25,-66.62 647.25,-64.62 315.75,-64.62"/>
<polygon fill="#000000" stroke="none" points="315.75,-62.62 315.75,-64.62 647.25,-64.62 647.25,-62.62 315.75,-62.62"/>
<text text-anchor="start" x="378.88" y="-47.33" font-family="arial" font-size="14.00"> </text>
</g>
<!-- MC4_CAN&#45;&#45;W5 -->
<g id="edge17" class="edge">
<title>MC4_CAN:e&#45;&#45;W5:w</title>
<path fill="none" stroke="#000000" stroke-width="2" d="M171.75,-170.13C243.13,-172.19 240.38,-91.44 315.75,-89.38"/>
<path fill="none" stroke="#00ff00" stroke-width="2" d="M171.75,-172.12C245.13,-172.13 242.37,-91.38 315.75,-91.38"/>
<path fill="none" stroke="#000000" stroke-width="2" d="M171.75,-174.12C247.12,-172.06 244.37,-91.31 315.75,-93.37"/>
</g>
<!-- MC4_CAN&#45;&#45;W5 -->
<g id="edge19" class="edge">
<title>MC4_CAN:e&#45;&#45;W5:w</title>
<path fill="none" stroke="#000000" stroke-width="2" d="M171.75,-122.63C238.92,-124.43 244.6,-65.43 315.75,-63.63"/>
<path fill="none" stroke="#ffff00" stroke-width="2" d="M171.75,-124.62C240.91,-124.62 246.59,-65.62 315.75,-65.62"/>
<path fill="none" stroke="#000000" stroke-width="2" d="M171.75,-126.62C242.9,-124.82 248.58,-65.82 315.75,-67.62"/>
</g>
<!-- Relay_Board -->
<g id="node6" class="node">
<title>Relay_Board</title>
<polygon fill="#ffffff" stroke="black" points="963,-166.25 791.25,-166.25 791.25,0 963,0 963,-166.25"/>
<polygon fill="none" stroke="black" points="791.25,-142.5 791.25,-166.25 963,-166.25 963,-142.5 791.25,-142.5"/>
<text text-anchor="start" x="838.12" y="-148.95" font-family="arial" font-size="14.00">Relay_Board</text>
<polygon fill="none" stroke="black" points="791.25,-118.75 791.25,-142.5 875.75,-142.5 875.75,-118.75 791.25,-118.75"/>
<text text-anchor="start" x="795.25" y="-125.2" font-family="arial" font-size="14.00">JST B5B&#45;XH</text>
<polygon fill="none" stroke="black" points="875.75,-118.75 875.75,-142.5 925,-142.5 925,-118.75 875.75,-118.75"/>
<text text-anchor="start" x="879.75" y="-125.2" font-family="arial" font-size="14.00">female</text>
<polygon fill="none" stroke="black" points="925,-118.75 925,-142.5 963,-142.5 963,-118.75 925,-118.75"/>
<text text-anchor="start" x="929" y="-125.2" font-family="arial" font-size="14.00">5&#45;pin</text>
<polygon fill="none" stroke="black" points="791.25,-95 791.25,-118.75 858,-118.75 858,-95 791.25,-95"/>
<text text-anchor="start" x="820.88" y="-101.45" font-family="arial" font-size="14.00">1</text>
<polygon fill="none" stroke="black" points="858,-95 858,-118.75 963,-118.75 963,-95 858,-95"/>
<text text-anchor="start" x="888.75" y="-101.45" font-family="arial" font-size="14.00">CAN_L</text>
<polygon fill="none" stroke="black" points="791.25,-71.25 791.25,-95 858,-95 858,-71.25 791.25,-71.25"/>
<text text-anchor="start" x="820.88" y="-77.7" font-family="arial" font-size="14.00">2</text>
<polygon fill="none" stroke="black" points="858,-71.25 858,-95 963,-95 963,-71.25 858,-71.25"/>
<text text-anchor="start" x="888.75" y="-77.7" font-family="arial" font-size="14.00">CAN_L</text>
<polygon fill="none" stroke="black" points="791.25,-47.5 791.25,-71.25 858,-71.25 858,-47.5 791.25,-47.5"/>
<text text-anchor="start" x="820.88" y="-53.95" font-family="arial" font-size="14.00">3</text>
<polygon fill="none" stroke="black" points="858,-47.5 858,-71.25 963,-71.25 963,-47.5 858,-47.5"/>
<text text-anchor="start" x="887.62" y="-53.95" font-family="arial" font-size="14.00">CAN_H</text>
<polygon fill="none" stroke="black" points="791.25,-23.75 791.25,-47.5 858,-47.5 858,-23.75 791.25,-23.75"/>
<text text-anchor="start" x="820.88" y="-30.2" font-family="arial" font-size="14.00">4</text>
<polygon fill="none" stroke="black" points="858,-23.75 858,-47.5 963,-47.5 963,-23.75 858,-23.75"/>
<text text-anchor="start" x="887.62" y="-30.2" font-family="arial" font-size="14.00">CAN_H</text>
<polygon fill="none" stroke="black" points="791.25,0 791.25,-23.75 858,-23.75 858,0 791.25,0"/>
<text text-anchor="start" x="820.88" y="-6.45" font-family="arial" font-size="14.00">5</text>
<polygon fill="none" stroke="black" points="858,0 858,-23.75 963,-23.75 963,0 858,0"/>
<text text-anchor="start" x="895.12" y="-6.45" font-family="arial" font-size="14.00">GND</text>
</g>
<!-- W1&#45;&#45;MC1_CAN -->
<g id="edge2" class="edge">
<title>W1:e&#45;&#45;MC1_CAN:w</title>
<path fill="none" stroke="#000000" stroke-width="2" d="M641.88,-741.38C711.19,-743.14 717.96,-684.64 791.25,-682.88"/>
<path fill="none" stroke="#00ff00" stroke-width="2" d="M641.88,-743.37C713.17,-743.38 719.95,-684.88 791.25,-684.87"/>
<path fill="none" stroke="#000000" stroke-width="2" d="M641.88,-745.37C715.16,-743.61 721.94,-685.11 791.25,-686.87"/>
</g>
<!-- W1&#45;&#45;MC1_CAN -->
<g id="edge4" class="edge">
<title>W1:e&#45;&#45;MC1_CAN:w</title>
<path fill="none" stroke="#000000" stroke-width="2" d="M641.88,-715.63C715.24,-717.66 713.89,-637.41 791.25,-635.38"/>
<path fill="none" stroke="#ffff00" stroke-width="2" d="M641.88,-717.62C717.24,-717.62 715.89,-637.38 791.25,-637.38"/>
<path fill="none" stroke="#000000" stroke-width="2" d="M641.88,-719.62C719.24,-717.59 717.89,-637.34 791.25,-639.37"/>
</g>
<!-- W3&#45;&#45;MC3_CAN -->
<g id="edge6" class="edge">
<title>W3:e&#45;&#45;MC3_CAN:w</title>
<path fill="none" stroke="#000000" stroke-width="2" d="M635.12,-415.38C718.41,-417.63 704,-306.13 791.25,-303.88"/>
<path fill="none" stroke="#00ff00" stroke-width="2" d="M635.12,-417.38C720.39,-417.38 705.98,-305.88 791.25,-305.88"/>
<path fill="none" stroke="#000000" stroke-width="2" d="M635.12,-419.37C722.38,-417.12 707.97,-305.62 791.25,-307.87"/>
</g>
<!-- W3&#45;&#45;MC3_CAN -->
<g id="edge8" class="edge">
<title>W3:e&#45;&#45;MC3_CAN:w</title>
<path fill="none" stroke="#000000" stroke-width="2" d="M635.12,-389.63C724.39,-392.01 698.06,-258.76 791.25,-256.38"/>
<path fill="none" stroke="#ffff00" stroke-width="2" d="M635.12,-391.63C726.35,-391.62 700.02,-258.38 791.25,-258.38"/>
<path fill="none" stroke="#000000" stroke-width="2" d="M635.12,-393.62C728.31,-391.24 701.99,-257.99 791.25,-260.37"/>
</g>
<!-- W2&#45;&#45;MC1_CAN -->
<g id="edge10" class="edge">
<title>W2:e&#45;&#45;MC1_CAN:w</title>
<path fill="none" stroke="#000000" stroke-width="2" d="M635.12,-578.38C715.25,-580.38 715.13,-661.13 791.25,-659.13"/>
<path fill="none" stroke="#00ff00" stroke-width="2" d="M635.12,-580.38C713.25,-580.38 713.13,-661.13 791.25,-661.13"/>
<path fill="none" stroke="#000000" stroke-width="2" d="M635.12,-582.37C711.25,-580.37 711.13,-661.12 791.25,-663.12"/>
</g>
<!-- W2&#45;&#45;MC1_CAN -->
<g id="edge12" class="edge">
<title>W2:e&#45;&#45;MC1_CAN:w</title>
<path fill="none" stroke="#000000" stroke-width="2" d="M635.12,-552.63C711.29,-554.36 719.05,-613.36 791.25,-611.63"/>
<path fill="none" stroke="#ffff00" stroke-width="2" d="M635.12,-554.62C709.3,-554.62 717.07,-613.62 791.25,-613.62"/>
<path fill="none" stroke="#000000" stroke-width="2" d="M635.12,-556.62C707.32,-554.89 715.09,-613.89 791.25,-615.62"/>
</g>
<!-- W4&#45;&#45;MC3_CAN -->
<g id="edge14" class="edge">
<title>W4:e&#45;&#45;MC3_CAN:w</title>
<path fill="none" stroke="#000000" stroke-width="2" d="M641.88,-252.38C711.18,-253.46 725.5,-281.21 791.25,-280.13"/>
<path fill="none" stroke="#00ff00" stroke-width="2" d="M641.88,-254.37C709.4,-254.38 723.73,-282.12 791.25,-282.12"/>
<path fill="none" stroke="#000000" stroke-width="2" d="M641.88,-256.37C707.62,-255.29 721.95,-283.04 791.25,-284.12"/>
</g>
<!-- W4&#45;&#45;MC3_CAN -->
<g id="edge16" class="edge">
<title>W4:e&#45;&#45;MC3_CAN:w</title>
<path fill="none" stroke="#000000" stroke-width="2" d="M641.88,-226.63C709,-226.75 725.49,-232.75 791.25,-232.63"/>
<path fill="none" stroke="#ffff00" stroke-width="2" d="M641.88,-228.62C708.32,-228.62 724.81,-234.62 791.25,-234.62"/>
<path fill="none" stroke="#000000" stroke-width="2" d="M641.88,-230.62C707.63,-230.5 724.12,-236.5 791.25,-236.62"/>
</g>
<!-- W5&#45;&#45;Relay_Board -->
<g id="edge18" class="edge">
<title>W5:e&#45;&#45;Relay_Board:w</title>
<path fill="none" stroke="#000000" stroke-width="2" d="M647.25,-89.38C713.04,-89.97 728.31,-105.47 791.25,-104.88"/>
<path fill="none" stroke="#00ff00" stroke-width="2" d="M647.25,-91.38C711.62,-91.38 726.88,-106.88 791.25,-106.88"/>
<path fill="none" stroke="#000000" stroke-width="2" d="M647.25,-93.37C710.19,-92.78 725.46,-108.28 791.25,-108.87"/>
</g>
<!-- W5&#45;&#45;Relay_Board -->
<g id="edge20" class="edge">
<title>W5:e&#45;&#45;Relay_Board:w</title>
<path fill="none" stroke="#000000" stroke-width="2" d="M647.25,-63.63C710.58,-63.76 726.46,-57.51 791.25,-57.38"/>
<path fill="none" stroke="#ffff00" stroke-width="2" d="M647.25,-65.62C711.31,-65.62 727.19,-59.38 791.25,-59.38"/>
<path fill="none" stroke="#000000" stroke-width="2" d="M647.25,-67.62C712.04,-67.49 727.92,-61.24 791.25,-61.37"/>
</g>
</g>
</svg>
